<?xml version="1.0" encoding="utf-8"?>
<!-- Generator: Adobe Illustrator 22.0.1, SVG Export Plug-In . SVG Version: 6.00 Build 0)  -->
<svg version="1.1" id="图层_1" xmlns="http://www.w3.org/2000/svg" xmlns:xlink="http://www.w3.org/1999/xlink" x="0px" y="0px"
	 viewBox="0 0 82 64" style="enable-background:new 0 0 82 64;" xml:space="preserve">
<style type="text/css">
	.st0{opacity:5.100000e-02;fill:#FFFFFF;enable-background:new    ;}
	.st1{opacity:5.000000e-02;fill:url(#SVGID_1_);}
	.st2{fill:#FF793C;}
</style>
<path class="st0" d="M0,0h52c16.6,0,30,13.4,30,30v4c0,16.6-13.4,30-30,30H0V0z"/>
<linearGradient id="SVGID_1_" gradientUnits="userSpaceOnUse" x1="-327.939" y1="216.1094" x2="-328.939" y2="216.1094" gradientTransform="matrix(82 0 0 -64 26973 13863)">
	<stop  offset="0" style="stop-color:#FF6059"/>
	<stop  offset="1" style="stop-color:#FF9F00"/>
</linearGradient>
<path class="st1" d="M0,0h52c16.6,0,30,13.4,30,30v4c0,16.6-13.4,30-30,30H0V0z"/>
<path class="st2" d="M27.8,32.5l18.6,18.6c-1.2,1.4-2,2.2-2,2.2L23.6,32.5l20.8-20.8c0,0,0.8,0.9,2,2.2L27.8,32.5z"/>
</svg>
